<svg width="24" height="24" viewBox="0 0 24 24" fill="none" xmlns="http://www.w3.org/2000/svg">
<g id="type=contrast">
<path id="Vector" d="M12.0005 0C9.62712 0 7.30704 0.703788 5.33365 2.02236C3.36026 3.34094 1.82219 5.21508 0.913939 7.4078C0.0056875 9.60051 -0.231952 12.0133 0.23107 14.3411C0.694093 16.6689 1.83698 18.807 3.51521 20.4853C5.19344 22.1635 7.33164 23.3064 9.65941 23.7694C11.9872 24.2324 14.4 23.9948 16.5927 23.0865C18.7854 22.1783 20.6595 20.6402 21.9781 18.6668C23.2967 16.6934 24.0005 14.3734 24.0005 12C23.997 8.81847 22.7316 5.76826 20.4819 3.51858C18.2322 1.2689 15.182 0.00349392 12.0005 0ZM12.4805 0.9708C13.459 1.0125 14.4276 1.18483 15.3605 1.4832V22.5168C14.4276 22.8152 13.459 22.9875 12.4805 23.0292V0.9708ZM16.3205 1.8408C17.3674 2.28902 18.3388 2.89617 19.2005 3.6408V20.3628C18.3388 21.1074 17.3674 21.7146 16.3205 22.1628V1.8408ZM0.960493 12C0.963836 9.15614 2.06317 6.42299 4.02992 4.36886C5.99666 2.31473 8.67947 1.09769 11.5205 0.9708V23.0292C8.67947 22.9023 5.99666 21.6853 4.02992 19.6311C2.06317 17.577 0.963836 14.8439 0.960493 12ZM20.1605 19.428V4.572C22.0132 6.60222 23.0403 9.2515 23.0403 12C23.0403 14.7485 22.0132 17.3978 20.1605 19.428Z" fill="white"/>
</g>
</svg>
