<svg width="24" height="24" viewBox="0 0 24 24" fill="none" xmlns="http://www.w3.org/2000/svg">
<g id="type=brightness">
<path id="Vector" d="M11.5867 2.89655V0.413793C11.5867 0.304048 11.6303 0.198798 11.7079 0.121197C11.7855 0.0435959 11.8907 0 12.0005 0C12.1102 0 12.2155 0.0435959 12.2931 0.121197C12.3707 0.198798 12.4143 0.304048 12.4143 0.413793V2.89655C12.4143 3.0063 12.3707 3.11155 12.2931 3.18915C12.2155 3.26675 12.1102 3.31034 12.0005 3.31034C11.8907 3.31034 11.7855 3.26675 11.7079 3.18915C11.6303 3.11155 11.5867 3.0063 11.5867 2.89655ZM18.2074 12C18.2074 13.2276 17.8434 14.4276 17.1613 15.4484C16.4793 16.4691 15.5099 17.2646 14.3758 17.7344C13.2416 18.2042 11.9936 18.3271 10.7896 18.0876C9.58556 17.8481 8.4796 17.257 7.61155 16.3889C6.7435 15.5209 6.15235 14.4149 5.91286 13.2109C5.67336 12.0069 5.79628 10.7589 6.26606 9.62472C6.73585 8.49056 7.5314 7.52118 8.55212 6.83915C9.57284 6.15713 10.7729 5.7931 12.0005 5.7931C13.6461 5.79502 15.2237 6.44957 16.3873 7.61318C17.5509 8.77678 18.2055 10.3544 18.2074 12ZM17.3798 12C17.3798 10.9361 17.0643 9.89604 16.4732 9.01142C15.8821 8.12679 15.042 7.43731 14.0591 7.03017C13.0761 6.62302 11.9945 6.51649 10.951 6.72405C9.90755 6.93161 8.94905 7.44394 8.19674 8.19625C7.44443 8.94856 6.9321 9.90706 6.72454 10.9505C6.51698 11.994 6.62351 13.0756 7.03065 14.0586C7.4378 15.0415 8.12728 15.8816 9.0119 16.4727C9.89653 17.0638 10.9366 17.3793 12.0005 17.3793C13.4267 17.3777 14.794 16.8104 15.8024 15.8019C16.8109 14.7935 17.3782 13.4262 17.3798 12ZM5.08704 5.67207C5.16468 5.74971 5.26999 5.79333 5.3798 5.79333C5.4896 5.79333 5.59491 5.74971 5.67256 5.67207C5.7502 5.59442 5.79382 5.48912 5.79382 5.37931C5.79382 5.2695 5.7502 5.1642 5.67256 5.08655L4.01739 3.43138C3.93974 3.35373 3.83443 3.31011 3.72463 3.31011C3.61482 3.31011 3.50951 3.35373 3.43187 3.43138C3.35422 3.50902 3.3106 3.61433 3.3106 3.72414C3.3106 3.83394 3.35422 3.93925 3.43187 4.0169L5.08704 5.67207ZM5.08704 18.3279L3.43187 19.9831C3.39342 20.0215 3.36293 20.0672 3.34212 20.1174C3.32131 20.1677 3.3106 20.2215 3.3106 20.2759C3.3106 20.3302 3.32131 20.3841 3.34212 20.4343C3.36293 20.4845 3.39342 20.5302 3.43187 20.5686C3.47031 20.6071 3.51595 20.6376 3.56619 20.6584C3.61642 20.6792 3.67026 20.6899 3.72463 20.6899C3.779 20.6899 3.83283 20.6792 3.88307 20.6584C3.9333 20.6376 3.97894 20.6071 4.01739 20.5686L5.67256 18.9134C5.7502 18.8358 5.79382 18.7305 5.79382 18.6207C5.79382 18.5109 5.7502 18.4056 5.67256 18.3279C5.59491 18.2503 5.4896 18.2067 5.3798 18.2067C5.26999 18.2067 5.16468 18.2503 5.08704 18.3279ZM18.6212 5.7931C18.6755 5.79315 18.7294 5.78248 18.7796 5.76171C18.8298 5.74094 18.8755 5.71048 18.9139 5.67207L20.5691 4.0169C20.6076 3.97845 20.6381 3.93281 20.6589 3.88258C20.6797 3.83235 20.6904 3.77851 20.6904 3.72414C20.6904 3.66977 20.6797 3.61593 20.6589 3.5657C20.6381 3.51547 20.6076 3.46982 20.5691 3.43138C20.5307 3.39293 20.485 3.36244 20.4348 3.34163C20.3846 3.32082 20.3307 3.31011 20.2764 3.31011C20.222 3.31011 20.1681 3.32082 20.1179 3.34163C20.0677 3.36244 20.022 3.39293 19.9836 3.43138L18.3284 5.08655C18.2705 5.14442 18.231 5.21818 18.215 5.29849C18.199 5.3788 18.2072 5.46206 18.2386 5.53771C18.2699 5.61336 18.323 5.67801 18.3911 5.72347C18.4592 5.76893 18.5393 5.79317 18.6212 5.7931ZM18.9139 18.3279C18.8363 18.2503 18.731 18.2067 18.6212 18.2067C18.5114 18.2067 18.4061 18.2503 18.3284 18.3279C18.2508 18.4056 18.2072 18.5109 18.2072 18.6207C18.2072 18.7305 18.2508 18.8358 18.3284 18.9134L19.9836 20.5686C20.022 20.6071 20.0677 20.6376 20.1179 20.6584C20.1681 20.6792 20.222 20.6899 20.2764 20.6899C20.3307 20.6899 20.3846 20.6792 20.4348 20.6584C20.485 20.6376 20.5307 20.6071 20.5691 20.5686C20.6076 20.5302 20.6381 20.4845 20.6589 20.4343C20.6797 20.3841 20.6904 20.3302 20.6904 20.2759C20.6904 20.2215 20.6797 20.1677 20.6589 20.1174C20.6381 20.0672 20.6076 20.0215 20.5691 19.9831L18.9139 18.3279ZM2.89704 11.5862H0.414281C0.304537 11.5862 0.199287 11.6298 0.121685 11.7074C0.0440842 11.785 0.000488281 11.8903 0.000488281 12C0.000488281 12.1097 0.0440842 12.215 0.121685 12.2926C0.199287 12.3702 0.304537 12.4138 0.414281 12.4138H2.89704C3.00678 12.4138 3.11203 12.3702 3.18964 12.2926C3.26724 12.215 3.31083 12.1097 3.31083 12C3.31083 11.8903 3.26724 11.785 3.18964 11.7074C3.11203 11.6298 3.00678 11.5862 2.89704 11.5862ZM12.0005 20.6897C11.8907 20.6897 11.7855 20.7333 11.7079 20.8109C11.6303 20.8885 11.5867 20.9937 11.5867 21.1034V23.5862C11.5867 23.696 11.6303 23.8012 11.7079 23.8788C11.7855 23.9564 11.8907 24 12.0005 24C12.1102 24 12.2155 23.9564 12.2931 23.8788C12.3707 23.8012 12.4143 23.696 12.4143 23.5862V21.1034C12.4143 20.9937 12.3707 20.8885 12.2931 20.8109C12.2155 20.7333 12.1102 20.6897 12.0005 20.6897ZM23.5867 11.5862H21.1039C20.9942 11.5862 20.8889 11.6298 20.8113 11.7074C20.7337 11.785 20.6901 11.8903 20.6901 12C20.6901 12.1097 20.7337 12.215 20.8113 12.2926C20.8889 12.3702 20.9942 12.4138 21.1039 12.4138H23.5867C23.6964 12.4138 23.8017 12.3702 23.8793 12.2926C23.9569 12.215 24.0005 12.1097 24.0005 12C24.0005 11.8903 23.9569 11.785 23.8793 11.7074C23.8017 11.6298 23.6964 11.5862 23.5867 11.5862Z" fill="white"/>
</g>
</svg>
